<?xml version="1.0" encoding="UTF-8"?><svg id="Layer_2" xmlns="http://www.w3.org/2000/svg" xmlns:xlink="http://www.w3.org/1999/xlink" viewBox="0 0 114.27 97.95"><defs><style>.cls-1{fill:url(#linear-gradient);}.cls-2,.cls-3{fill:#fff;}.cls-4{fill:url(#linear-gradient-2);}.cls-5{fill:#b08f00;}.cls-5,.cls-6,.cls-3,.cls-7{fill-rule:evenodd;}.cls-6{fill:#fff4af;}</style><linearGradient id="linear-gradient" x1="51.2" y1="19.21" x2="61.42" y2="33.43" gradientTransform="matrix(1, 0, 0, 1, 0, 0)" gradientUnits="userSpaceOnUse"><stop offset=".02" stop-color="#b79733"/><stop offset=".49" stop-color="#e9de98"/><stop offset=".95" stop-color="#b79733"/></linearGradient><linearGradient id="linear-gradient-2" x1="51.12" y1="15.99" x2="61.31" y2="35.29" gradientTransform="matrix(1, 0, 0, 1, 0, 0)" gradientUnits="userSpaceOnUse"><stop offset=".18" stop-color="#dac774"/><stop offset=".49" stop-color="#fdfceb"/><stop offset=".86" stop-color="#dac774"/></linearGradient></defs><g id="Logos"><g><g><path class="cls-6" d="M105.39,32.22v-10.82h-18.09C80.73,8.48,69.67,0,57.14,0s-23.6,8.48-30.17,21.4H8.88v10.82C3.26,37.06,0,42.81,0,48.97s3.26,11.91,8.88,16.76v10.82H26.97c6.57,12.92,17.63,21.4,30.17,21.4s23.6-8.48,30.17-21.4h18.09v-10.82c5.62-4.84,8.88-10.59,8.88-16.76s-3.26-11.91-8.88-16.76h0Z"/><path class="cls-5" d="M104.68,65.13l-.29,.25v10.32h-17.74l-.26,.51c-6.65,13.08-17.59,20.88-29.25,20.88s-22.6-7.81-29.25-20.88l-.26-.51H9.88v-10.32l-.29-.25C3.97,60.28,1,54.7,1,48.97s2.97-11.31,8.59-16.15l.29-.25v-10.32H27.62l.26-.51C34.53,8.66,45.47,.86,57.14,.86s22.6,7.81,29.25,20.88l.26,.51h17.74v10.32l.29,.25c5.62,4.84,8.59,10.43,8.59,16.15s-2.97,11.31-8.59,16.15h0Z"/><path class="cls-6" d="M95.74,35.57v-8.65h-14.47c-5.26-10.33-14.11-17.12-24.13-17.12s-18.88,6.78-24.13,17.12h-14.47v8.65c-4.5,3.88-7.1,8.47-7.1,13.41s2.61,9.53,7.1,13.41v8.65h14.47c5.26,10.33,14.11,17.12,24.13,17.12s18.88-6.78,24.13-17.12h14.47v-8.65c4.5-3.88,7.1-8.47,7.1-13.41s-2.61-9.53-7.1-13.41h0Z"/><path class="cls-7" d="M95.17,61.9l-.23,.2v8.25h-14.19l-.21,.41c-5.32,10.46-14.07,16.71-23.4,16.71s-18.08-6.25-23.4-16.71l-.21-.41h-14.19v-8.25l-.23-.2c-4.49-3.87-6.87-8.34-6.87-12.92s2.38-9.05,6.87-12.92l.23-.2v-8.25h14.19l.21-.41c5.32-10.46,14.07-16.71,23.4-16.71s18.08,6.25,23.4,16.71l.21,.41h14.19v8.25l.23,.2c4.49,3.87,6.87,8.34,6.87,12.92s-2.38,9.05-6.87,12.92h0Z"/><path class="cls-7" d="M39.86,13.39c-.1-1.33,1.29-2.87,6.12-3.09,8.28-.39,12.16-7.11,8.76-8.51-.98-.4-2.06,.23-2.23,.94-.41,1.69,2.25,1.43,1.85,.28-.12-.34-.6-.52-1.08-.39-.03,0-.05,.01-.08,.02,.84-1.08,2.28-.17,2.12,1.13-.27,2.07-3.66,5.48-10.5,5.89-5.12,.3-5.44,3.14-5.47,3.95-.04,1.02,.6,.86,.52-.22h0Z"/><path class="cls-7" d="M68.33,10.31c4.82,.23,6.22,1.77,6.12,3.09-.08,1.08,.55,1.24,.52,.22-.03-.81-.35-3.65-5.47-3.95-6.83-.41-10.23-3.82-10.5-5.89-.17-1.3,1.28-2.21,2.12-1.13-.03,0-.05-.02-.08-.02-.48-.12-.96,.05-1.08,.39-.4,1.15,2.26,1.41,1.85-.28-.17-.7-1.25-1.34-2.23-.94-3.4,1.4,.47,8.12,8.76,8.51h0Z"/><path class="cls-7" d="M45.96,87.63c-4.82-.23-6.22-1.77-6.12-3.09,.08-1.08-.55-1.24-.52-.22,.03,.81,.35,3.65,5.47,3.95,6.83,.41,10.23,3.82,10.5,5.89,.17,1.3-1.27,2.21-2.12,1.13,.03,0,.05,.02,.08,.02,.48,.12,.96-.05,1.08-.39,.4-1.15-2.26-1.41-1.85,.28,.17,.7,1.25,1.34,2.23,.94,3.4-1.4-.47-8.12-8.76-8.51h0Z"/><path class="cls-7" d="M44.57,88.67c-.99-.3-.67-.02,.2,.2,1.02,.26,2.06,1.35,.98,1.77-1.04,.41,1.03,1.29,1.48,.08,.44-1.18-2.04-1.86-2.65-2.05h0Z"/><path class="cls-7" d="M41.88,86.33c-.8-.37-1.25-.36-.31,.02,.59,.24,2.91,1.27,3.57,.17,.68-1.14-1.5-1.76-1.11-.85,.41,.95-1.22,1.09-2.16,.66h0Z"/><path class="cls-7" d="M74.44,84.53c.1,1.33-1.29,2.87-6.12,3.09-8.28,.39-12.16,7.11-8.76,8.51,.98,.4,2.06-.23,2.23-.94,.41-1.69-2.25-1.43-1.85-.28,.12,.34,.6,.52,1.08,.39,.03,0,.05-.01,.08-.02-.84,1.08-2.28,.17-2.12-1.13,.27-2.07,3.66-5.48,10.5-5.89,5.12-.3,5.44-3.14,5.47-3.95,.04-1.02-.6-.86-.52,.22h0Z"/><path class="cls-7" d="M69.71,88.66c-.62,.19-3.1,.87-2.65,2.05,.46,1.22,2.52,.33,1.48-.08-1.08-.42-.04-1.51,.98-1.77,.87-.22,1.18-.51,.2-.2h0Z"/><path class="cls-7" d="M69.14,86.51c.66,1.1,2.98,.07,3.57-.17,.95-.39,.49-.39-.31-.02-.94,.43-2.56,.3-2.16-.66,.39-.92-1.79-.29-1.11,.85h0Z"/><path class="cls-7" d="M15.63,63.83c-1.55,.09-3.35-1.11-3.61-5.24-.45-7.1-8.3-10.42-9.92-7.51-.47,.84,.27,1.76,1.09,1.91,1.98,.35,1.67-1.93,.33-1.58-.4,.1-.6,.52-.46,.93,0,.02,.02,.04,.03,.07-1.27-.72-.19-1.96,1.32-1.81,2.42,.23,6.4,3.14,6.87,9,.35,4.39,3.66,4.66,4.61,4.69,1.19,.03,1-.51-.25-.44h0Z"/><path class="cls-7" d="M8.41,57.5c-1.42,.39-.39,2.16,.09,1.27,.5-.92,1.76-.04,2.07,.84,.26,.74,.59,1.01,.24,.17-.22-.53-1.02-2.65-2.39-2.28h0Z"/><path class="cls-7" d="M14.3,60.24c1.07,.34,.34-1.54-.99-.95-1.28,.57-.09,2.55,.19,3.06,.45,.81,.46,.42,.03-.26-.51-.8-.35-2.2,.77-1.85h0Z"/><path class="cls-7" d="M12.03,39.42c.26-4.13,2.06-5.33,3.61-5.24,1.26,.07,1.45-.47,.25-.44-.95,.02-4.26,.3-4.61,4.69-.47,5.86-4.45,8.77-6.87,9-1.51,.14-2.58-1.09-1.32-1.81,0,.02-.02,.04-.03,.07-.14,.41,.06,.82,.46,.93,1.34,.34,1.65-1.94-.33-1.58-.82,.15-1.56,1.08-1.09,1.91,1.63,2.92,9.47-.41,9.92-7.51h0Z"/><path class="cls-7" d="M8.43,40.51c1.38,.38,2.17-1.75,2.39-2.28,.36-.85,.02-.58-.24,.17-.31,.87-1.57,1.76-2.07,.84-.48-.89-1.51,.88-.09,1.27h0Z"/><path class="cls-7" d="M13.52,35.66c-.28,.51-1.48,2.49-.19,3.06,1.32,.59,2.06-1.29,.99-.95-1.11,.35-1.27-1.05-.77-1.85,.43-.68,.42-1.07-.03-.26h0Z"/><path class="cls-7" d="M112.17,51.09c-1.63-2.92-9.47,.41-9.92,7.51-.26,4.13-2.06,5.33-3.61,5.24-1.26-.07-1.45,.47-.25,.44,.95-.02,4.26-.3,4.61-4.69,.47-5.86,4.45-8.77,6.87-9,1.51-.14,2.58,1.09,1.32,1.81,0-.02,.02-.04,.03-.07,.14-.41-.06-.82-.46-.93-1.34-.34-1.65,1.94,.33,1.58,.82-.15,1.56-1.08,1.09-1.91h0Z"/><path class="cls-7" d="M105.85,57.51c-1.38-.38-2.17,1.75-2.39,2.28-.36,.85-.02,.58,.24-.17,.31-.87,1.57-1.76,2.07-.84,.48,.89,1.51-.88,.09-1.27h0Z"/><path class="cls-7" d="M100.76,62.36c.28-.51,1.48-2.49,.19-3.06-1.32-.59-2.06,1.29-.99,.95,1.11-.35,1.27,1.05,.77,1.85-.43,.68-.42,1.07,.03,.26h0Z"/><path class="cls-7" d="M98.62,34.19c1.55-.09,3.35,1.11,3.61,5.24,.45,7.1,8.3,10.42,9.92,7.51,.47-.84-.27-1.76-1.09-1.91-1.98-.35-1.67,1.93-.33,1.58,.4-.1,.6-.52,.46-.93,0-.02-.02-.04-.03-.07,1.27,.72,.19,1.96-1.32,1.81-2.42-.23-6.4-3.14-6.87-9-.35-4.39-3.66-4.66-4.61-4.69-1.19-.03-1,.51,.25,.44h0Z"/><path class="cls-7" d="M105.83,40.52c1.42-.39,.39-2.16-.09-1.27-.5,.92-1.76,.04-2.07-.84-.26-.74-.59-1.01-.24-.17,.22,.53,1.02,2.65,2.39,2.28h0Z"/><path class="cls-7" d="M99.95,37.78c-1.07-.34-.34,1.54,.99,.95,1.28-.57,.09-2.55-.19-3.06-.45-.81-.46-.42-.03,.26,.51,.8,.35,2.2-.77,1.85h0Z"/><path class="cls-7" d="M44.57,9.26c.62-.19,3.1-.87,2.65-2.05-.46-1.22-2.52-.33-1.48,.08,1.08,.42,.04,1.51-.98,1.77-.87,.22-1.18,.51-.2,.2h0Z"/><path class="cls-7" d="M45.14,11.4c-.66-1.1-2.98-.07-3.57,.17-.95,.39-.49,.39,.31,.02,.94-.43,2.56-.3,2.16,.66-.39,.92,1.79,.29,1.11-.85h0Z"/><path class="cls-7" d="M69.7,9.27c.99,.3,.67,.02-.2-.2-1.02-.26-2.06-1.35-.98-1.77,1.04-.41-1.03-1.29-1.48-.08-.44,1.18,2.04,1.86,2.65,2.05h0Z"/><path class="cls-7" d="M72.39,11.61c.8,.37,1.25,.36,.31-.02-.59-.24-2.91-1.27-3.57-.17-.68,1.14,1.5,1.76,1.11,.85-.41-.95,1.22-1.09,2.16-.66h0Z"/><path class="cls-3" d="M53.03,77.17c-.54,.11-1.07-.21-1.19-.71-.21-.5-.16-1.07,.14-1.52,.12-.16,.3-.25,.5-.26,.2-.01,.4,.06,.54,.2,.03,.05,.06,.11,.06,.16,.02,.06,.04,.12,.06,.19,.02,.09,.08,.17,.16,.21,.08,.05,.18,.06,.28,.03,.09-.02,.17-.08,.22-.17,.05-.08,.05-.18,.02-.26-.3-.52-.98-.75-1.57-.54-.32,.11-.61,.28-.84,.52-.03,.02-.07,.04-.11,.04-.09,0-.18,0-.27,0-.1,0-.2,0-.29,.02-.04,0-.07,0-.11-.02-.02,0-.03-.03-.02-.05,.02-.07,.05-.14,.08-.21,.18-.48,.1-1.01-.22-1.43-.06-.11-.11-.22-.14-.34-.01-.05-.04-.08-.09-.1-.07-.02-.15-.02-.22-.01-.8,0-1.61,0-2.41,0-.12,0-.23,.06-.27,.16l-2.24,4.46s0,.04,0,.06c.01,.02,.04,.03,.06,.04,.21,.02,.43,.02,.64,.01,.06,0,.11,0,.17,0,.04,0,.07-.02,.1-.04,.06-.07,.11-.14,.14-.22,.11-.22,.23-.44,.35-.66,.04-.06,.1-.1,.18-.1,.41-.01,.82-.01,1.23,0,.05,0,.09,.02,.11,.06,.02,.07,.03,.13,.02,.2,0,.22,.03,.43,.08,.64,.01,.05,.05,.09,.09,.1,.07,.02,.15,.02,.22,.01,.64,0,1.27,0,1.91,0,.05,0,.1-.02,.13-.06v-.05c.02-.06,.03-.13,.04-.19l.03-.06c.08-.08,.15-.16,.21-.25,.03-.06,.04-.13,.01-.19-.03-.1-.1-.19-.19-.25l-.05-.04s-.05-.08-.05-.12c0-.07,0-.15,0-.22,0-.03,.01-.06,.03-.08,0,0,.02,0,.02,0,.02,0,.04,.02,.05,.04,.07,.08,.16,.15,.27,.2l.09,.05c.06,.04,.1,.1,.13,.16,.1,.43,.4,.79,.81,1.01,.34,.15,.73,.17,1.07,.04,.35-.12,.63-.38,.77-.7,.06-.12,.11-.24,.15-.37,0-.03,0-.05-.02-.07,0-.01-.02-.02-.04-.02-.04,.01-.07,.03-.09,.06-.05,.08-.11,.16-.17,.24-.15,.19-.36,.33-.59,.39h0Zm-3.64-.09l-.06,.02s-.07,0-.11,0c-.02,0-.04-.01-.05-.03-.04-.04-.05-.09-.04-.15,0-.01,.01-.02,.02-.02,.03,0,.07-.01,.1,0,.04,0,.07,0,.11,0,.02,0,.03,0,.05-.02,.04-.02,.07-.04,.11-.06,.03-.02,.06-.03,.09-.04,.01,0,.03,0,.04-.01,.09,0,.18,0,.27,0,.08-.01,.17,0,.25,.02,.02,.01,.05,.02,.07,.04,.01,0,.03,.02,.04,.02,.08,.05,.17,.06,.26,.03h.05s.04,0,.05,0c.01,.01,.02,.03,.01,.05,0,.03-.02,.06-.03,.09,0,.02-.02,.03-.04,.05-.01,0-.02,.02-.04,.02-.04,0-.08,0-.12,0h-.01s-.07-.02-.1-.03c-.03-.01-.07-.02-.1-.03-.03,0-.06,.01-.08,.03,0,0-.01,.01-.01,.02-.02,.03-.03,.07-.05,.11-.02,.05-.04,.1-.08,.15-.03,.04-.1,.05-.14,.02l-.04-.04c-.06-.07-.11-.14-.15-.21l-.03-.04s-.05-.03-.08-.03h-.05s-.07,.04-.11,.04h0Zm.45-.73c.12,0,.24,0,.36,0,.03,0,.05,.01,.07,.04v.05s0,.07,0,.1c0,.01-.02,.02-.03,.02-.23-.02-.46-.04-.7-.04-.02,0-.04-.01-.05-.03-.01-.03,0-.06,0-.08,.02-.03,.04-.04,.08-.05,.09,0,.18-.01,.27-.01h0Zm1.11-.53c-.04-.05-.09-.09-.15-.11-.21-.04-.43,.06-.52,.24-.03,.05-.06,.09-.09,.14h0s-.06,.04-.09,.03c-.14-.01-.27-.02-.41-.02-.02,0-.04,0-.05-.02-.02-.02-.05-.04-.06-.07-.11-.19-.32-.32-.55-.33-.04,0-.07,.01-.09,.04l-.03,.04s-.05,.09-.07,.14c0,.02,0,.04,0,.06,.02,.04,.04,.08,.07,.11l.04,.04s.01,.03,0,.04c0,.02-.03,.03-.04,.03-.08,0-.16,0-.24,0-.07,0-.14-.02-.2-.07-.16-.18-.2-.44-.1-.65,.02-.11,.1-.21,.22-.24,.31-.03,.63,.05,.88,.23,.03,.02,.06,.03,.1,.04h.05s.06,.05,.08,.09c.03,.05,.05,.1,.07,.16,.01,.07,.03,.14,.05,.2,0,.03,.03,.05,.06,.06,.04,.01,.09,0,.12-.02,.04-.02,.06-.06,.06-.1,.04-.37,.06-.74,.06-1.1,0-.07,.03-.14,.07-.21,.05-.08,.07-.18,.05-.28-.03-.1-.05-.21-.07-.31v-.11c.02-.13,0-.26-.02-.39,0-.05-.03-.1-.07-.13-.04-.03-.1-.05-.15-.04-.03,0-.07,0-.09,.03l-.03,.04c-.05,.08-.11,.16-.17,.23-.07,.07-.09,.17-.06,.26,.03,.08,.07,.16,.12,.23,.08,.11,.11,.26,.06,.39-.03,.1-.05,.2-.06,.3,.02,.1,.04,.2,.07,.3,.01,.05,.01,.11,0,.16,0,.03-.03,.06-.07,.08-.02,.01-.05,.01-.07,0l-.07-.08c-.1-.14-.17-.29-.23-.45-.29-.57-.1-1.25,.45-1.6,.07-.06,.18-.07,.26-.02,.25,.16,.44,.39,.54,.65,.12,.5,0,1.03-.32,1.45-.03,.03-.05,.07-.06,.11,0,.02,0,.04,0,.05,.01,.02,.03,.03,.05,.03,.04,0,.07-.01,.1-.03,.24-.16,.51-.24,.8-.25,.11,0,.21,.05,.27,.15,.11,.12,.16,.29,.12,.45-.04,.16-.15,.29-.31,.36-.07,0-.14,.02-.21,.02-.04,0-.07,0-.11-.02,0,0-.02-.01-.02-.02,0-.02,0-.03,.01-.04,.02-.03,.05-.06,.06-.1l.03-.05s.01-.06,0-.09l-.03-.04h0Zm-3.48-.9l.2-.41c.07-.16,.15-.31,.23-.46,0,0,.02-.01,.03-.02,.01,0,.02,0,.03,.01l.03,.11c.03,.45,.07,.9,.11,1.35,0,.06,0,.11-.04,.16-.03,.05-.09,.07-.15,.08-.14,0-.27,.01-.41,.01-.09,0-.18,0-.27,0-.04,0-.07-.03-.08-.06-.02-.04-.02-.08,0-.11,.1-.22,.21-.44,.32-.66h0Zm9.33,2.31s-.07,0-.1,0c-.03,0-.05-.03-.06-.05-.03-.06-.04-.13-.04-.2-.02-.65-.05-1.3-.09-1.95-.12-.38-.51-.62-.93-.57-.59-.11-1.18,.21-1.37,.74-.01,.06,0,.13,.05,.17,.04,.05,.1,.09,.15,.13,.06,.03,.13,.04,.2,.03,.07-.02,.12-.06,.15-.12,.06-.12,.1-.25,.11-.39,.08-.23,.32-.38,.58-.36,.26,.03,.46,.22,.49,.46,.03,.11,.03,.23,.03,.35,0,.05-.03,.09-.07,.11-.44,.16-.87,.35-1.29,.57-.29,.13-.48,.4-.5,.69-.03,.3,.12,.58,.37,.76,.42,.16,.89,.08,1.22-.21,.05-.04,.1-.07,.16-.1,.02,0,.04-.01,.07,0,.02,0,.03,.01,.04,.03,.02,.06,.05,.13,.08,.19,.15,.19,.44,.23,.65,.1,.14-.08,.27-.18,.38-.3l.08-.1s0-.05-.02-.07c-.02-.02-.05-.02-.08,0l-.06,.04s-.08,.04-.11,.05l-.06,.02h0Zm-2.06-.35c-.02-.13,0-.26,.03-.39,.16-.24,.4-.41,.69-.5,.12-.07,.26-.11,.4-.14,.02,0,.03,0,.05,.01,.02,.01,.03,.03,.03,.04,.02,.08,.03,.17,.02,.26,0,.23,0,.46,0,.69,0,.07-.04,.14-.11,.19-.15,.09-.31,.18-.47,.24-.07,.04-.16,.04-.24,.02-.2-.07-.35-.23-.4-.43h0Zm5.51,.35s-.02-.01-.03-.02c-.01-.01-.02-.02-.03-.04-.01-.04-.02-.08-.03-.12-.03-1.36-.04-2.72-.05-4.08,0-.05-.03-.11-.07-.14-.03-.02-.07-.02-.1-.02-.1,.02-.19,.05-.27,.09-.2,.07-.39,.15-.59,.22-.04,.01-.07,.04-.08,.07,0,.02-.01,.04,0,.05,0,.02,.02,.03,.04,.04,.04,0,.08,0,.11,0,.09-.01,.18,.02,.24,.07,.07,.05,.1,.13,.1,.22,.02,.3,.02,.6,.02,.9v.11s-.03,.02-.05,.03c-.02,0-.05,0-.07,0-.39-.19-.85-.21-1.25-.04-.4,.16-.7,.48-.82,.87-.36,.71-.16,1.56,.49,2.07,.48,.33,1.15,.29,1.57-.1,.02-.02,.05-.03,.08-.03,.02,0,.03,.01,.04,.02,.01,.05,.02,.11,.02,.16,0,.04,0,.07,.01,.11,0,.02,.03,.04,.05,.05h.05c.14-.02,.27-.06,.39-.13,.16-.06,.33-.12,.49-.18,.04-.01,.08-.04,.1-.08v-.04s-.02-.05-.05-.05h-.06c-.06,0-.13,0-.19-.01h-.05Zm-1.68-2.56c.21-.03,.43,.02,.6,.14,.17,.12,.28,.3,.3,.5,.04,.51,.04,1.02,.03,1.54,0,.08-.01,.16-.06,.22-.22,.23-.57,.31-.87,.2-.51-.27-.79-.8-.72-1.34-.09-.53,.2-1.05,.73-1.26h0Zm6.46,2.54c-.08,.01-.16-.03-.18-.1-.03-.08-.04-.17-.03-.26,.01-.62,0-1.24-.06-1.85-.14-.39-.56-.63-.99-.57-.51-.09-1.02,.14-1.27,.57-.1,.17-.03,.39,.15,.49,.06,.03,.13,.03,.19,0,.1-.03,.18-.11,.2-.21,0-.09,.02-.18,.03-.27,.07-.22,.28-.37,.52-.37,.24,0,.46,.14,.53,.36,.04,.15,.05,.3,.04,.45,0,.06-.04,.11-.1,.13-.45,.16-.87,.36-1.28,.59-.21,.1-.38,.28-.44,.49-.07,.21-.03,.44,.09,.64,.12,.19,.33,.32,.56,.37,.23,.04,.48-.01,.67-.14,.13-.07,.25-.14,.36-.23,.02-.02,.05-.03,.08-.04,.01,0,.02,0,.04,0,.03,.02,.05,.05,.06,.08,.06,.15,.19,.25,.35,.29,.24,.02,.47-.08,.62-.26,.05-.05,.1-.09,.15-.14,.04-.04,.06-.09,.05-.15,0-.01-.02-.02-.04-.02-.03,0-.06,.01-.08,.03-.04,.03-.08,.07-.13,.09-.03,.02-.06,.03-.09,.03h0Zm-2.07-.35c-.05-.19,0-.39,.14-.53,.28-.22,.6-.39,.94-.51h.05s.05,0,.06,.02l.02,.11c0,.26,0,.53,0,.79,0,.06,0,.13-.03,.19-.01,.03-.03,.05-.05,.07-.03,.03-.06,.05-.09,.07-.1,.06-.21,.11-.31,.15-.1,.06-.22,.07-.34,.05-.17-.09-.3-.24-.36-.42h0Zm-1.23-1.24c0-.36,0-.71,0-1.07,0-.05-.03-.09-.08-.1-.04,0-.09,0-.13,0-.28,.1-.56,.2-.83,.3-.04,.02-.06,.06-.04,.09,.01,.03,.04,.04,.07,.04,.02,0,.05,0,.07,0,.03,0,.07,0,.1,0,.08,.02,.14,.07,.17,.14,.1,.22,.14,.47,.11,.71,.01,.48,0,.96-.03,1.44-.05,.18-.2,.32-.39,.36-.03,0-.06,.02-.08,.04,0,0-.01,.01-.01,.02,0,0,0,.02,.01,.02,.02,.02,.05,.03,.08,.03,.47,0,.94,0,1.41,0,.03,0,.06,0,.08-.03,0,0,.01-.01,.01-.02,0,0,0-.02-.01-.02-.02-.02-.05-.03-.08-.04-.14-.04-.26-.13-.34-.25-.08-.37-.1-.75-.08-1.13v-.52h0Zm4.71,.1c0-.13,0-.26,.02-.39,.02-.11,.09-.2,.2-.26,.23-.2,.56-.27,.87-.18,.1,.04,.17,.13,.2,.22,.09,.44,.11,.88,.08,1.32,0,.25,0,.51,0,.76-.05,.15-.18,.26-.35,.29-.04,.01-.08,.02-.12,.04l-.03,.02s-.01,.01-.01,.02,0,.02,.01,.02c.02,.02,.05,.03,.08,.03,.41,0,.83,.01,1.24,0,.08,0,.15,0,.23-.01,0,0,.02,0,.02-.02,0,0,0-.02,0-.03,0-.03-.03-.05-.06-.06-.17-.05-.3-.18-.34-.35,0-.65-.03-1.31-.07-1.96-.02-.19-.1-.37-.22-.52-.11-.13-.27-.22-.44-.24-.4-.02-.8,.12-1.08,.39l-.09,.07s-.04,.01-.06,0c-.02,0-.03-.02-.04-.04v-.05c-.01-.07-.02-.14-.02-.22v-.07c-.03-.07-.11-.12-.2-.1-.09,.01-.18,.04-.26,.08-.22,.08-.43,.16-.65,.24-.03,.01-.05,.05-.04,.08,0,.03,.04,.06,.08,.05h.06s.07,0,.11-.01c.1,0,.18,.06,.21,.15,.06,.16,.08,.32,.06,.49,0,.55,0,1.1-.02,1.65-.03,.13-.12,.24-.25,.3-.06,.03-.11,.07-.16,.11,0,0,0,0,0,.01,0,0,0,0,0,.01,.03,.02,.07,.02,.11,.02,.38,0,.75,0,1.13,0,.08,0,.15,0,.23-.01,.02,0,.04-.02,.05-.04,0-.01,0-.03,0-.03-.06-.03-.12-.05-.18-.08-.04-.02-.09-.04-.13-.06-.04-.02-.07-.05-.09-.09-.03-.08-.05-.17-.04-.26-.01-.44-.02-.89-.01-1.33h0Zm-4.59-3.33c.24,.09,.43,.29,.49,.53,.06,.24,0,.49-.17,.68-.02,.04-.05,.07-.07,.11,0,.01,0,.02,0,.03,0,0,.02,.01,.03,0,.35-.23,.49-.65,.34-1.02-.1-.23-.29-.4-.54-.49s-.52-.07-.75,.04c0,0-.01,.02-.02,.03,0,0,0,.02,.01,.02,.03,.01,.06,.02,.1,.01,.05,0,.11-.02,.16-.03,.14,0,.28,.02,.41,.08h0Zm.16-1.3c-.06,.02-.12,.04-.17,.07,0,0-.01,.01-.01,.02,0,0,0,.02,.02,.02,.03,.01,.07,.02,.11,.02,.59-.07,1.17,.17,1.49,.64,.32,.47,.32,1.06,0,1.53l-.07,.12s0,0,0,.01c0,0,0,0,.01,0,.01,0,.03,0,.04,0,.48-.45,.59-1.15,.27-1.71-.33-.56-1.01-.86-1.68-.73h0Zm-.43,1.73c-.16-.06-.34-.01-.43,.13-.09,.14-.06,.31,.07,.42,.13,.1,.32,.1,.45,0,.13-.11,.16-.28,.06-.42-.04-.05-.09-.09-.15-.12h0Zm.75-.96c.57,.25,.85,.85,.65,1.41-.01,.03-.01,.06,0,.08h.02s.02-.01,.03-.03c.2-.4,.15-.88-.15-1.22-.29-.35-.77-.51-1.24-.42,0,0,0,0,0,.01s0,0,0,.01c.05,.02,.11,.02,.16,.02,.18,0,.36,.05,.53,.14h0Zm-16.09,7.41l.4-1.01h.6v.04h-.05s-.08,0-.1,.02c-.02,.01-.03,.03-.04,.05,0,.02-.01,.07-.01,.14v1.01c0,.08,0,.13,.01,.15,0,.02,.02,.04,.05,.05,.02,.01,.06,.02,.1,.02h.05v.04h-.77v-.04h.05s.08,0,.1-.02c.02-.01,.03-.03,.04-.05,0-.02,.01-.07,.01-.14v-1.14l-.57,1.4h-.03l-.58-1.39v1.08c0,.08,0,.12,0,.14,0,.04,.03,.07,.06,.09,.03,.02,.08,.04,.15,.04v.04h-.51v-.04h.02s.06,0,.09-.02c.03-.01,.05-.03,.06-.05,.01-.02,.03-.05,.03-.08,0,0,0-.05,0-.12v-.97c0-.08,0-.13-.01-.15,0-.02-.02-.04-.05-.05-.02-.01-.06-.02-.1-.02h-.05v-.04h.61l.42,1.01h0Zm1.87-.57c.09,0,.17,.02,.25,.07s.13,.12,.17,.2c.04,.09,.06,.18,.06,.29,0,.15-.04,.28-.11,.38-.09,.12-.21,.18-.37,.18s-.27-.06-.36-.17c-.08-.11-.12-.24-.12-.39s.04-.28,.13-.4c.08-.11,.2-.17,.35-.17h0Zm0,.08s-.07,.01-.1,.04c-.03,.03-.04,.09-.05,.17,0,.09-.01,.2-.01,.36,0,.08,0,.16,.02,.23,0,.05,.03,.09,.05,.12,.03,.03,.06,.04,.09,.04s.06,0,.08-.03c.03-.03,.05-.06,.06-.11,.01-.07,.02-.22,.02-.44,0-.13,0-.22-.02-.26-.01-.05-.03-.08-.06-.1-.02-.02-.04-.02-.07-.02h0Zm1.31-.05v.14c.05-.06,.1-.1,.15-.13,.05-.03,.1-.04,.16-.04,.07,0,.12,.02,.17,.06,.04,.04,.07,.09,.09,.14,.01,.04,.02,.13,.02,.25v.41c0,.08,0,.13,.02,.15,.01,.02,.04,.03,.09,.04v.04h-.52v-.04s.07-.02,.08-.05c.01-.02,.02-.07,.02-.14v-.47c0-.09,0-.14,0-.16,0-.02-.02-.04-.03-.05-.02-.01-.03-.02-.05-.02-.06,0-.12,.05-.18,.14v.57c0,.08,0,.13,.02,.15,.01,.02,.04,.03,.08,.04v.04h-.52v-.04s.07-.02,.09-.04c.01-.02,.02-.07,.02-.15v-.6c0-.08,0-.13-.02-.15-.01-.02-.04-.03-.09-.04v-.04h.42Zm1.34-.51s.09,.02,.12,.05c.03,.03,.05,.08,.05,.12s-.02,.09-.05,.12c-.03,.03-.07,.05-.12,.05s-.09-.02-.12-.05c-.03-.03-.05-.08-.05-.12s.02-.09,.05-.12c.03-.03,.07-.05,.12-.05h0Zm.15,.51v.84c0,.07,0,.12,.03,.14,.02,.02,.05,.03,.1,.04v.04h-.55v-.04s.08-.02,.1-.04c.01-.02,.02-.06,.02-.14v-.62c0-.07,0-.12-.03-.14-.02-.02-.05-.03-.1-.04v-.04h.43Zm.89-.39v.39h.24v.11h-.24v.65c0,.06,0,.1,0,.12,0,.02,.02,.03,.03,.04,.01,.01,.03,.02,.04,.02,.05,0,.09-.04,.13-.11l.03,.02c-.06,.15-.15,.22-.29,.22-.06,0-.12-.02-.16-.06-.04-.04-.07-.08-.09-.13,0-.03-.01-.1-.01-.21v-.57h-.13v-.04c.09-.07,.17-.14,.23-.21,.06-.07,.12-.16,.17-.25h.04Zm1.09,.36c.09,0,.17,.02,.25,.07,.08,.05,.13,.12,.17,.2,.04,.09,.06,.18,.06,.29,0,.15-.04,.28-.11,.38-.09,.12-.21,.18-.37,.18s-.27-.06-.36-.17c-.08-.11-.12-.24-.12-.39s.04-.28,.13-.4c.08-.11,.2-.17,.35-.17h0Zm0,.08s-.07,.01-.1,.04c-.03,.03-.04,.09-.05,.17,0,.09-.01,.2-.01,.36,0,.08,0,.16,.02,.23,0,.05,.03,.09,.05,.12,.03,.03,.06,.04,.09,.04s.06,0,.08-.03c.03-.03,.05-.06,.06-.11,.01-.07,.02-.22,.02-.44,0-.13,0-.22-.02-.26-.01-.05-.03-.08-.06-.1-.02-.02-.04-.02-.07-.02h0Zm1.32-.05v.24c.07-.11,.13-.18,.18-.22,.05-.04,.1-.05,.15-.05,.04,0,.07,.01,.1,.04,.02,.03,.04,.06,.04,.11,0,.05-.01,.09-.04,.12-.02,.03-.05,.04-.09,.04-.04,0-.07-.01-.1-.04-.03-.03-.05-.04-.05-.04,0,0-.02,0-.03,0-.02,0-.04,0-.06,.02-.03,.03-.05,.06-.07,.11-.02,.07-.03,.15-.03,.24v.31s0,.07,0,.08c0,.02,.02,.04,.04,.04,.02,0,.05,.02,.09,.02v.04h-.55v-.04s.07-.02,.09-.04c.02-.02,.02-.08,.02-.17v-.59c0-.06,0-.1,0-.12,0-.02-.02-.04-.03-.05-.01,0-.04-.02-.07-.02v-.04h.42Zm1.08-.51s.09,.02,.12,.05c.03,.03,.05,.08,.05,.12s-.02,.09-.05,.12c-.03,.03-.07,.05-.12,.05s-.09-.02-.12-.05c-.03-.03-.05-.08-.05-.12s.02-.09,.05-.12c.03-.03,.07-.05,.12-.05h0Zm.15,.51v.84c0,.07,0,.12,.03,.14,.02,.02,.05,.03,.1,.04v.04h-.55v-.04s.08-.02,.1-.04c.01-.02,.02-.06,.02-.14v-.62c0-.07,0-.12-.03-.14-.02-.02-.05-.03-.1-.04v-.04h.43Zm.9,0v.14c.05-.06,.1-.1,.15-.13,.05-.03,.1-.04,.16-.04,.07,0,.12,.02,.17,.06,.04,.04,.07,.09,.09,.14,.01,.04,.02,.13,.02,.25v.41c0,.08,0,.13,.02,.15,.01,.02,.04,.03,.09,.04v.04h-.52v-.04s.07-.02,.08-.05c.01-.02,.02-.07,.02-.14v-.47c0-.09,0-.14,0-.16,0-.02-.02-.04-.03-.05-.02-.01-.03-.02-.05-.02-.06,0-.12,.05-.17,.14v.57c0,.08,0,.13,.02,.15,.01,.02,.04,.03,.08,.04v.04h-.52v-.04s.07-.02,.09-.04c.01-.02,.02-.07,.02-.15v-.6c0-.08,0-.13-.02-.15-.01-.02-.04-.03-.09-.04v-.04h.42Zm1.75,.01h.34v.12h-.2s.06,.07,.07,.1c.02,.04,.03,.08,.03,.13,0,.08-.02,.14-.06,.2-.04,.06-.1,.1-.17,.13-.07,.03-.13,.05-.19,.05,0,0-.05,0-.13,0-.03,0-.06,.01-.08,.03-.02,.02-.03,.05-.03,.08,0,.03,0,.05,.03,.07,.02,.02,.05,.03,.1,.03h.19c.15,0,.26,.02,.32,.05,.08,.05,.12,.12,.12,.22,0,.06-.02,.12-.06,.18-.04,.05-.09,.09-.15,.12-.09,.04-.2,.06-.32,.06-.09,0-.18,0-.25-.03-.08-.02-.13-.04-.16-.08-.03-.03-.05-.07-.05-.1s.01-.07,.04-.09c.03-.03,.07-.05,.14-.07-.09-.05-.14-.12-.14-.2,0-.05,.02-.1,.06-.15,.04-.05,.1-.09,.18-.13-.1-.04-.17-.09-.21-.15-.04-.06-.07-.13-.07-.21,0-.1,.04-.19,.12-.27,.08-.08,.19-.11,.31-.11,.07,0,.14,.01,.21,.04h0Zm-.19,.03s-.08,.02-.11,.07c-.03,.04-.04,.14-.04,.27,0,.11,.01,.19,.04,.23,.03,.04,.06,.06,.1,.06,.04,0,.08-.02,.11-.06,.03-.04,.04-.12,.04-.24,0-.14-.02-.23-.05-.28-.02-.04-.06-.05-.1-.05h0Zm-.06,1.18c-.07,0-.12,0-.15,.02-.04,.02-.06,.06-.06,.1s.02,.07,.06,.1c.04,.03,.12,.05,.24,.05,.1,0,.18-.01,.24-.04,.06-.03,.09-.07,.09-.12,0-.02,0-.03-.02-.05-.02-.02-.05-.04-.09-.05-.04,0-.15-.01-.32-.01h0Zm2.78-1.73v.51h-.03c-.02-.13-.07-.23-.16-.31-.08-.08-.17-.12-.27-.12-.07,0-.13,.02-.18,.06-.04,.04-.06,.09-.06,.14,0,.03,0,.06,.02,.09,.02,.04,.06,.07,.1,.11,.03,.02,.11,.07,.24,.13,.17,.09,.29,.17,.35,.25,.06,.08,.09,.17,.09,.27,0,.13-.05,.24-.14,.33-.1,.09-.22,.14-.37,.14-.05,0-.09,0-.13-.01-.04,0-.09-.03-.16-.06-.03-.02-.06-.02-.09-.02-.02,0-.04,0-.06,.02-.02,.02-.04,.04-.05,.07h-.04v-.58h.04c.03,.16,.09,.29,.19,.37,.09,.09,.19,.13,.3,.13,.08,0,.15-.02,.2-.07,.05-.05,.07-.1,.07-.16,0-.04,0-.07-.03-.11-.02-.03-.05-.07-.08-.1-.04-.03-.11-.07-.2-.12-.13-.07-.23-.13-.29-.18-.06-.05-.1-.1-.14-.16-.03-.06-.05-.13-.05-.2,0-.12,.04-.23,.13-.31,.09-.09,.2-.13,.33-.13,.05,0,.09,0,.14,.02,.03,0,.08,.03,.13,.05,.05,.02,.08,.04,.1,.04s.03,0,.04-.02c.01-.01,.02-.04,.03-.09h.03Zm1.4,1h-.56c0,.14,.04,.25,.11,.33,.05,.06,.11,.09,.18,.09,.04,0,.08-.01,.12-.04,.04-.03,.07-.07,.11-.14l.04,.02c-.06,.12-.12,.2-.18,.25-.07,.05-.14,.07-.23,.07-.15,0-.27-.06-.34-.18-.06-.1-.09-.22-.09-.36,0-.18,.05-.32,.14-.42,.09-.1,.2-.16,.32-.16,.1,0,.19,.04,.27,.13,.08,.09,.12,.22,.12,.39h0Zm-.27-.08c0-.12,0-.21-.02-.25-.01-.05-.03-.08-.06-.1-.02-.01-.04-.02-.06-.02-.04,0-.07,.02-.09,.06-.04,.07-.06,.16-.06,.28v.04h.3Zm1.08-.42v.24c.07-.11,.13-.18,.18-.22s.1-.05,.15-.05c.04,0,.07,.01,.1,.04,.02,.03,.04,.06,.04,.11,0,.05-.01,.09-.04,.12-.02,.03-.05,.04-.09,.04-.04,0-.07-.01-.1-.04-.03-.03-.05-.04-.05-.04,0,0-.02,0-.03,0-.02,0-.04,0-.06,.02-.03,.03-.05,.06-.07,.11-.02,.07-.03,.15-.03,.24v.31s0,.07,0,.08c0,.02,.02,.04,.04,.04,.02,0,.05,.02,.09,.02v.04h-.55v-.04s.07-.02,.09-.04c.02-.02,.02-.08,.02-.17v-.59c0-.06,0-.1,0-.12,0-.02-.02-.04-.03-.05-.01,0-.04-.02-.07-.02v-.04h.42Zm1.29,1.09l-.34-.82c-.04-.1-.07-.16-.1-.19-.02-.02-.04-.03-.07-.04v-.04h.54v.04s-.06,0-.07,.02c-.02,.02-.03,.04-.03,.06,0,.03,.02,.08,.05,.16l.17,.4,.13-.34c.04-.1,.06-.17,.06-.21,0-.02,0-.04-.02-.06s-.05-.02-.09-.02v-.04h.33v.04s-.06,.02-.08,.04c-.02,.02-.05,.08-.09,.18l-.34,.83h-.05Zm1.17-1.6s.09,.02,.12,.05c.03,.03,.05,.08,.05,.12s-.02,.09-.05,.12c-.03,.03-.07,.05-.12,.05s-.09-.02-.12-.05c-.03-.03-.05-.08-.05-.12s.02-.09,.05-.12c.03-.03,.07-.05,.12-.05h0Zm.15,.51v.84c0,.07,0,.12,.03,.14,.02,.02,.05,.03,.1,.04v.04h-.55v-.04s.08-.02,.1-.04c.01-.02,.02-.06,.02-.14v-.62c0-.07,0-.12-.03-.14-.02-.02-.05-.03-.1-.04v-.04h.43Zm1.32,.79l.03,.03c-.05,.09-.11,.16-.18,.21-.07,.05-.15,.07-.23,.07-.14,0-.25-.05-.33-.16-.08-.11-.12-.23-.12-.38s.04-.27,.11-.38c.09-.13,.21-.2,.37-.2,.11,0,.19,.03,.25,.08,.06,.06,.09,.12,.09,.18,0,.04-.01,.08-.04,.1-.03,.03-.06,.04-.1,.04-.04,0-.08-.01-.11-.04-.03-.03-.05-.08-.05-.16,0-.05-.01-.08-.03-.1-.02-.02-.04-.03-.06-.03-.03,0-.06,.02-.09,.06-.04,.06-.06,.15-.06,.27,0,.1,.02,.2,.05,.29,.03,.09,.07,.16,.13,.2,.04,.03,.09,.05,.14,.05,.04,0,.07,0,.1-.03,.03-.02,.07-.05,.11-.1h0Zm1.29-.29h-.56c0,.14,.04,.25,.11,.33,.05,.06,.11,.09,.18,.09,.04,0,.08-.01,.12-.04,.04-.03,.07-.07,.11-.14l.04,.02c-.06,.12-.12,.2-.18,.25-.07,.05-.14,.07-.23,.07-.15,0-.27-.06-.34-.18-.06-.1-.09-.22-.09-.36,0-.18,.05-.32,.14-.42,.09-.1,.2-.16,.32-.16,.1,0,.19,.04,.27,.13,.08,.09,.12,.22,.12,.39h0Zm-.27-.08c0-.12,0-.21-.02-.25-.01-.05-.03-.08-.06-.1-.02-.01-.04-.02-.06-.02-.04,0-.07,.02-.09,.06-.04,.07-.06,.16-.06,.28v.04h.3Zm1.31-.45l.02,.36h-.04c-.04-.11-.09-.18-.14-.22-.05-.04-.1-.06-.14-.06-.03,0-.06,.01-.08,.03s-.03,.04-.03,.07c0,.02,0,.04,.02,.06,.02,.03,.09,.08,.2,.16,.11,.08,.18,.14,.21,.19,.03,.05,.05,.11,.05,.18,0,.06-.01,.12-.04,.17s-.07,.1-.12,.13c-.05,.03-.11,.05-.17,.05-.05,0-.11-.02-.2-.05-.02,0-.04-.01-.04-.01-.02,0-.04,.02-.06,.06h-.04l-.02-.38h.04c.03,.1,.08,.17,.14,.22,.06,.05,.11,.07,.16,.07,.03,0,.06-.01,.09-.03,.02-.02,.03-.05,.03-.08,0-.04-.01-.07-.03-.09-.02-.03-.07-.07-.15-.12-.11-.08-.18-.14-.22-.18-.05-.06-.07-.13-.07-.21,0-.08,.03-.16,.08-.22,.05-.07,.13-.1,.24-.1,.06,0,.11,.01,.16,.04,.02,.01,.04,.02,.05,.02,.01,0,.02,0,.03,0,0,0,.02-.02,.04-.05h.04Z"/><g><path class="cls-2" d="M16.98,50.65v-7.41h1.34v2.87h4.18v-2.87h1.35v7.41h-1.35v-3.19h-4.18v3.19h-1.34Z"/><path class="cls-2" d="M26.37,50.65v-5.34h4.24v.91h-3.27v1.19h1.91v.91h-1.91v1.32h3.31v1h-4.28Z"/><path class="cls-2" d="M31.63,50.65l2.34-5.34h.93l2.37,5.34h-1.08l-.5-1.17h-2.62l-.48,1.17h-.96Zm1.85-2.13h1.81l-.89-2.17-.92,2.17Z"/><path class="cls-2" d="M39.72,50.65l-2.39-5.34h1.1l1.68,3.86,1.6-3.86h.96l-2.28,5.34h-.67Z"/><path class="cls-2" d="M43.79,50.65v-5.34h4.24v.91h-3.27v1.19h1.91v.91h-1.91v1.32h3.31v1h-4.28Z"/><path class="cls-2" d="M49.83,50.65v-5.34h.66l2.91,3.14c.1,.1,.19,.2,.26,.3,.08,.09,.14,.19,.21,.29-.02-.3-.03-.51-.03-.64,0-.12,0-.22,0-.29v-2.8h.87v5.34h-.66l-3.04-3.3c-.07-.08-.14-.16-.19-.23-.05-.07-.11-.14-.15-.21,.01,.16,.02,.32,.03,.47s0,.27,0,.38v2.88h-.87Z"/><path class="cls-2" d="M56.81,50.65v-5.34h.96v4.33h3.11v1h-4.07Z"/><path class="cls-2" d="M62.41,50.65v-2.39l-2.15-2.95h1.28l1.42,2.05,1.43-2.05h1.13l-2.14,2.92v2.42h-.97Z"/><path class="cls-2" d="M70.16,50.65v-7.41h1.34v2.87h4.18v-2.87h1.35v7.41h-1.35v-3.19h-4.18v3.19h-1.34Z"/><path class="cls-2" d="M79.47,46.58c0-.48,.07-.82,.21-.99,.14-.18,.41-.27,.81-.27h3.05c.4,0,.67,.09,.81,.27,.14,.18,.21,.51,.21,.99v2.81c0,.49-.07,.82-.21,1-.14,.18-.41,.27-.81,.27h-3.05c-.4,0-.67-.09-.81-.27-.14-.18-.21-.51-.21-1v-2.81Zm.96,3.07h3.18v-3.38h-3.18v3.38Z"/><path class="cls-2" d="M86.59,50.65v-5.34h.78l1.95,3.23,1.91-3.23h.77v5.34h-.89v-3.3c0-.06,0-.14,0-.24,0-.1,.02-.21,.03-.33-.05,.14-.1,.25-.14,.34-.04,.09-.07,.16-.11,.22l-1.55,2.67h-.19l-1.56-2.68c-.06-.1-.11-.2-.15-.29-.04-.09-.07-.18-.1-.26,0,.11,.01,.21,.02,.3,0,.09,0,.18,0,.26v3.3h-.78Z"/><path class="cls-2" d="M94.02,50.65v-5.34h4.24v.91h-3.27v1.19h1.91v.91h-1.91v1.32h3.31v1h-4.28Z"/></g><g><path class="cls-2" d="M39.5,54.32h-3.74v1.58h3.57c.56,0,.94,.12,1.13,.37,.2,.25,.29,.7,.29,1.37v1.01c0,.67-.1,1.13-.29,1.37-.2,.25-.57,.37-1.13,.37h-3.53c-.56,0-.94-.12-1.13-.37-.2-.25-.29-.7-.29-1.37v-.2l1.17-.31v.87h4.04v-1.68h-3.57c-.56,0-.93-.12-1.13-.37-.19-.25-.29-.7-.29-1.37v-.82c0-.67,.1-1.13,.29-1.37,.19-.25,.57-.37,1.13-.37h3.25c.54,0,.91,.12,1.11,.36s.31,.66,.31,1.26v.15l-1.17,.36v-.84Z"/><path class="cls-2" d="M43.11,60.4v-5.34h4.24v.91h-3.27v1.19h1.91v.91h-1.91v1.32h3.31v1h-4.28Z"/><path class="cls-2" d="M52.64,56.02h-2.6v3.38h2.6v-1.15l.96,.26v.63c0,.49-.07,.82-.21,1-.14,.18-.41,.27-.81,.27h-2.47c-.4,0-.67-.09-.81-.27-.14-.18-.21-.51-.21-1v-2.81c0-.48,.07-.82,.21-.99,.14-.18,.41-.27,.81-.27h2.47c.4,0,.67,.09,.81,.27,.14,.18,.21,.51,.21,.99v.5l-.96,.2v-1.01Z"/><path class="cls-2" d="M56.55,55.07v4.33h2.75v-4.33h.96v4.07c0,.49-.07,.82-.21,1-.14,.18-.41,.27-.81,.27h-2.62c-.4,0-.67-.09-.81-.27s-.21-.51-.21-1v-4.07h.96Z"/><path class="cls-2" d="M62.37,60.4v-5.34h3.54c.33,0,.57,.08,.71,.24,.15,.16,.22,.43,.22,.79v1.25c0,.36-.07,.62-.22,.79-.15,.16-.39,.25-.71,.25h-.54l1.91,2.01h-1.38l-1.67-2.01h-.91v2.01h-.95Zm3.11-4.41h-2.17v1.48h2.17c.17,0,.28-.03,.34-.09,.06-.06,.09-.17,.09-.33v-.64c0-.15-.03-.26-.09-.33-.06-.06-.18-.09-.34-.09Z"/><path class="cls-2" d="M68.8,60.4v-5.34h.96v5.34h-.96Z"/><path class="cls-2" d="M73.81,56.02v4.38h-.96v-4.38h-1.9v-.95h4.77v.95h-1.91Z"/><path class="cls-2" d="M78.05,60.4v-2.39l-2.15-2.95h1.28l1.42,2.05,1.43-2.05h1.13l-2.14,2.92v2.42h-.97Z"/></g><g><path class="cls-2" d="M47.12,80.92c.13,0,.21,.03,.26,.08,.04,.05,.07,.15,.07,.28v.17c0,.11-.02,.19-.06,.24-.04,.05-.11,.09-.21,.12,.11,.02,.18,.05,.23,.11,.05,.06,.07,.14,.07,.26v.19c0,.15-.03,.25-.08,.31-.05,.06-.14,.09-.27,.09h-.91c-.13,0-.22-.03-.27-.08s-.08-.16-.08-.31v-.19c0-.11,.02-.19,.07-.25,.05-.06,.13-.1,.23-.11-.1-.03-.17-.06-.21-.12s-.06-.13-.06-.24v-.17c0-.14,.02-.23,.07-.28,.04-.05,.13-.08,.26-.08h.89Zm-.08,1.04h-.73c-.05,0-.09,.01-.11,.03-.02,.02-.03,.07-.03,.14v.13c0,.07,0,.11,.03,.13,.02,.02,.05,.03,.11,.03h.73c.05,0,.09-.01,.11-.03,.02-.02,.03-.07,.03-.13v-.13c0-.07,0-.11-.03-.14-.02-.02-.05-.03-.11-.03Zm-.03-.73h-.66c-.05,0-.09,.01-.11,.03-.02,.02-.03,.07-.03,.13v.09c0,.07,0,.11,.03,.13,.02,.02,.06,.03,.11,.03h.66c.05,0,.09-.01,.11-.03,.02-.02,.03-.07,.03-.13v-.09c0-.07,0-.11-.03-.14-.02-.02-.05-.03-.11-.03Z"/><path class="cls-2" d="M49.25,80.92c.13,0,.21,.03,.26,.08,.04,.05,.07,.15,.07,.28v.17c0,.11-.02,.19-.06,.24-.04,.05-.11,.09-.21,.12,.11,.02,.18,.05,.23,.11,.05,.06,.07,.14,.07,.26v.19c0,.15-.03,.25-.08,.31-.05,.06-.14,.09-.27,.09h-.91c-.13,0-.22-.03-.27-.08s-.08-.16-.08-.31v-.19c0-.11,.02-.19,.07-.25,.05-.06,.13-.1,.23-.11-.1-.03-.17-.06-.21-.12s-.06-.13-.06-.24v-.17c0-.14,.02-.23,.07-.28,.04-.05,.13-.08,.26-.08h.89Zm-.08,1.04h-.73c-.05,0-.09,.01-.11,.03-.02,.02-.03,.07-.03,.14v.13c0,.07,0,.11,.03,.13,.02,.02,.05,.03,.11,.03h.73c.05,0,.09-.01,.11-.03,.02-.02,.03-.07,.03-.13v-.13c0-.07,0-.11-.03-.14-.02-.02-.05-.03-.11-.03Zm-.03-.73h-.66c-.05,0-.09,.01-.11,.03-.02,.02-.03,.07-.03,.13v.09c0,.07,0,.11,.03,.13,.02,.02,.06,.03,.11,.03h.66c.05,0,.09-.01,.11-.03,.02-.02,.03-.07,.03-.13v-.09c0-.07,0-.11-.03-.14-.02-.02-.05-.03-.11-.03Z"/><path class="cls-2" d="M51.38,80.92c.13,0,.21,.03,.26,.08,.04,.05,.07,.15,.07,.28v.17c0,.11-.02,.19-.06,.24-.04,.05-.11,.09-.21,.12,.11,.02,.18,.05,.23,.11,.05,.06,.07,.14,.07,.26v.19c0,.15-.03,.25-.08,.31-.05,.06-.14,.09-.27,.09h-.91c-.13,0-.22-.03-.27-.08s-.08-.16-.08-.31v-.19c0-.11,.02-.19,.07-.25,.05-.06,.13-.1,.23-.11-.1-.03-.17-.06-.21-.12s-.06-.13-.06-.24v-.17c0-.14,.02-.23,.07-.28,.04-.05,.13-.08,.26-.08h.89Zm-.08,1.04h-.73c-.05,0-.09,.01-.11,.03-.02,.02-.03,.07-.03,.14v.13c0,.07,0,.11,.03,.13,.02,.02,.05,.03,.11,.03h.73c.05,0,.09-.01,.11-.03,.02-.02,.03-.07,.03-.13v-.13c0-.07,0-.11-.03-.14-.02-.02-.05-.03-.11-.03Zm-.03-.73h-.66c-.05,0-.09,.01-.11,.03-.02,.02-.03,.07-.03,.13v.09c0,.07,0,.11,.03,.13,.02,.02,.06,.03,.11,.03h.66c.05,0,.09-.01,.11-.03,.02-.02,.03-.07,.03-.13v-.09c0-.07,0-.11-.03-.14-.02-.02-.05-.03-.11-.03Z"/><path class="cls-2" d="M52.56,82.2h.05s.04,0,.05,.03c0,.02,.01,.05,.01,.1v.29c0,.06,0,.09-.02,.11-.01,.02-.04,.02-.1,.02h-.25s-.04,0-.05-.03c0-.02-.01-.05-.01-.1v-.29c0-.05,0-.09,.02-.11,.01-.02,.04-.02,.1-.02h.2Z"/><path class="cls-2" d="M53.28,81.93l.08-1.02h1.23l-.02,.31h-.99l-.03,.36c.12-.02,.23-.03,.32-.03s.18-.01,.25-.01c.24,0,.41,.05,.53,.16,.12,.1,.18,.26,.18,.47s-.06,.37-.19,.47c-.12,.1-.32,.15-.6,.15-.14,0-.28,0-.39-.02-.12-.01-.21-.03-.3-.06l-.07-.35c.14,.03,.27,.06,.39,.07,.12,.02,.24,.02,.36,.02,.18,0,.3-.02,.38-.07,.07-.05,.11-.12,.11-.23,0-.1-.04-.17-.11-.22-.07-.04-.19-.07-.36-.07-.11,0-.23,0-.36,.02-.13,.01-.27,.03-.42,.06Z"/><path class="cls-2" d="M55.41,81.93l.08-1.02h1.23l-.02,.31h-.99l-.03,.36c.12-.02,.23-.03,.32-.03s.18-.01,.25-.01c.24,0,.41,.05,.53,.16,.12,.1,.18,.26,.18,.47s-.06,.37-.19,.47c-.12,.1-.32,.15-.6,.15-.14,0-.28,0-.39-.02-.12-.01-.21-.03-.3-.06l-.07-.35c.14,.03,.27,.06,.39,.07,.12,.02,.24,.02,.36,.02,.18,0,.3-.02,.38-.07,.07-.05,.11-.12,.11-.23,0-.1-.04-.17-.11-.22-.07-.04-.19-.07-.36-.07-.11,0-.23,0-.36,.02-.13,.01-.27,.03-.42,.06Z"/><path class="cls-2" d="M58.7,80.92c.13,0,.21,.03,.26,.08,.04,.05,.07,.15,.07,.28v.17c0,.11-.02,.19-.06,.24-.04,.05-.11,.09-.21,.12,.11,.02,.18,.05,.23,.11,.05,.06,.07,.14,.07,.26v.19c0,.15-.03,.25-.08,.31-.05,.06-.14,.09-.27,.09h-.91c-.13,0-.22-.03-.27-.08-.05-.06-.08-.16-.08-.31v-.19c0-.11,.02-.19,.07-.25,.05-.06,.13-.1,.23-.11-.1-.03-.17-.06-.21-.12-.04-.05-.06-.13-.06-.24v-.17c0-.14,.02-.23,.07-.28,.04-.05,.13-.08,.26-.08h.89Zm-.08,1.04h-.73c-.05,0-.09,.01-.11,.03-.02,.02-.03,.07-.03,.14v.13c0,.07,0,.11,.03,.13,.02,.02,.05,.03,.11,.03h.73c.05,0,.09-.01,.11-.03,.02-.02,.03-.07,.03-.13v-.13c0-.07,0-.11-.03-.14-.02-.02-.05-.03-.11-.03Zm-.03-.73h-.66c-.05,0-.09,.01-.11,.03-.02,.02-.03,.07-.03,.13v.09c0,.07,0,.11,.03,.13,.02,.02,.06,.03,.11,.03h.66c.05,0,.09-.01,.11-.03,.02-.02,.03-.07,.03-.13v-.09c0-.07,0-.11-.03-.14-.02-.02-.05-.03-.11-.03Z"/><path class="cls-2" d="M59.88,82.2h.05s.04,0,.05,.03c0,.02,.01,.05,.01,.1v.29c0,.06,0,.09-.02,.11-.01,.02-.04,.02-.1,.02h-.25s-.04,0-.05-.03c0-.02-.01-.05-.01-.1v-.29c0-.05,0-.09,.02-.11,.01-.02,.04-.02,.1-.02h.2Z"/><path class="cls-2" d="M61.76,82.02c-.1,.02-.21,.04-.31,.05s-.21,.01-.32,.01c-.23,0-.39-.03-.47-.1-.09-.07-.13-.19-.13-.37v-.25c0-.15,.04-.27,.12-.34s.2-.11,.37-.11h.6c.18,0,.3,.04,.37,.12,.07,.08,.1,.23,.1,.44v.24c0,.34-.09,.61-.27,.79s-.44,.28-.78,.28c-.03,0-.05,0-.06,0-.01,0-.03,0-.04,0l-.2-.29h.09c.3,0,.52-.04,.66-.11,.14-.07,.23-.19,.28-.37Zm.02-.28s0-.04,0-.06c0-.02,0-.04,0-.05,0-.18-.02-.29-.06-.34-.04-.04-.12-.07-.24-.07h-.39c-.1,0-.17,.02-.21,.05-.04,.03-.06,.09-.06,.18v.1c0,.09,.02,.15,.06,.18,.04,.03,.13,.05,.25,.05,.09,0,.19,0,.29-.01,.11,0,.22-.02,.33-.04Z"/><path class="cls-2" d="M63.9,82.02c-.1,.02-.21,.04-.31,.05s-.21,.01-.32,.01c-.23,0-.39-.03-.47-.1-.09-.07-.13-.19-.13-.37v-.25c0-.15,.04-.27,.12-.34s.2-.11,.37-.11h.6c.18,0,.3,.04,.37,.12,.07,.08,.1,.23,.1,.44v.24c0,.34-.09,.61-.27,.79s-.44,.28-.78,.28c-.03,0-.05,0-.06,0-.01,0-.03,0-.04,0l-.2-.29h.09c.3,0,.52-.04,.66-.11,.14-.07,.23-.19,.28-.37Zm.02-.28s0-.04,0-.06c0-.02,0-.04,0-.05,0-.18-.02-.29-.06-.34-.04-.04-.12-.07-.24-.07h-.39c-.1,0-.17,.02-.21,.05-.04,.03-.06,.09-.06,.18v.1c0,.09,.02,.15,.06,.18,.04,.03,.13,.05,.25,.05,.09,0,.19,0,.29-.01,.11,0,.22-.02,.33-.04Z"/><path class="cls-2" d="M65.48,82.75v-1.49h-.3v-.24l.6-.12v1.85h-.3Z"/><path class="cls-2" d="M67.61,82.75v-1.49h-.3v-.24l.6-.12v1.85h-.3Z"/></g><g><path class="cls-2" d="M37.51,65.14c.25,0,.42,.05,.51,.15,.09,.1,.13,.28,.13,.55v.32c0,.21-.04,.36-.12,.47-.08,.1-.22,.18-.41,.23,.2,.03,.36,.1,.45,.22,.1,.12,.14,.28,.14,.5v.38c0,.29-.05,.49-.15,.6-.1,.11-.28,.17-.53,.17h-1.77c-.25,0-.43-.05-.52-.16s-.15-.31-.15-.6v-.38c0-.21,.05-.38,.14-.5,.1-.12,.24-.19,.45-.22-.2-.05-.33-.13-.41-.23s-.12-.26-.12-.46v-.32c0-.27,.04-.45,.13-.55,.09-.1,.25-.15,.51-.15h1.73Zm-.15,2.02h-1.42c-.11,0-.17,.02-.21,.06s-.05,.13-.05,.26v.26c0,.13,.02,.22,.05,.26,.03,.04,.1,.06,.21,.06h1.42c.11,0,.18-.02,.21-.06,.03-.04,.05-.13,.05-.26v-.26c0-.13-.02-.22-.05-.26-.04-.04-.11-.06-.21-.06Zm-.06-1.41h-1.29c-.11,0-.18,.02-.22,.07-.04,.04-.06,.13-.06,.26v.18c0,.13,.02,.21,.06,.26,.04,.04,.11,.07,.22,.07h1.29c.1,0,.18-.02,.21-.06,.04-.04,.05-.13,.05-.26v-.18c0-.13-.02-.22-.05-.26-.04-.04-.11-.06-.21-.06Z"/><path class="cls-2" d="M40.22,68.78l1.5-3.03h-1.83v.77l-.59-.13v-1.25h3.08v.58l-1.45,3.06h-.71Z"/><path class="cls-2" d="M44.37,68.78l1.5-3.03h-1.83v.77l-.59-.13v-1.25h3.08v.58l-1.45,3.06h-.71Z"/><path class="cls-2" d="M48.11,67.64h.1s.08,.02,.1,.05c.02,.03,.03,.1,.03,.2v.56c0,.11-.01,.18-.03,.21-.02,.03-.09,.05-.19,.05h-.48s-.08-.02-.1-.05c-.02-.04-.03-.1-.03-.2v-.56c0-.11,.01-.17,.03-.21s.09-.05,.19-.05h.38Z"/><path class="cls-2" d="M49.51,67.12l.16-1.98h2.4l-.05,.61h-1.94l-.06,.69c.24-.03,.45-.05,.63-.07,.18-.01,.35-.02,.49-.02,.46,0,.8,.1,1.03,.3,.23,.2,.34,.5,.34,.91s-.12,.72-.36,.91c-.24,.19-.63,.28-1.17,.28-.28,0-.54-.01-.76-.04-.23-.02-.42-.06-.58-.11l-.14-.69c.27,.06,.53,.11,.77,.14,.24,.03,.47,.05,.69,.05,.35,0,.59-.04,.73-.13s.21-.24,.21-.45c0-.2-.07-.34-.21-.43-.14-.09-.37-.13-.7-.13-.21,0-.44,.01-.69,.04s-.52,.06-.81,.11Z"/><path class="cls-2" d="M55.9,65.14c.25,0,.42,.05,.51,.15,.09,.1,.13,.28,.13,.55v.32c0,.21-.04,.36-.12,.47-.08,.1-.22,.18-.41,.23,.2,.03,.36,.1,.45,.22,.1,.12,.14,.28,.14,.5v.38c0,.29-.05,.49-.15,.6-.1,.11-.28,.17-.53,.17h-1.77c-.25,0-.43-.05-.52-.16s-.15-.31-.15-.6v-.38c0-.21,.05-.38,.14-.5,.1-.12,.24-.19,.45-.22-.2-.05-.33-.13-.41-.23s-.12-.26-.12-.46v-.32c0-.27,.04-.45,.13-.55,.09-.1,.25-.15,.51-.15h1.73Zm-.15,2.02h-1.42c-.11,0-.17,.02-.21,.06s-.05,.13-.05,.26v.26c0,.13,.02,.22,.05,.26,.03,.04,.1,.06,.21,.06h1.42c.11,0,.18-.02,.21-.06,.03-.04,.05-.13,.05-.26v-.26c0-.13-.02-.22-.05-.26-.04-.04-.11-.06-.21-.06Zm-.06-1.41h-1.29c-.11,0-.18,.02-.22,.07-.04,.04-.06,.13-.06,.26v.18c0,.13,.02,.21,.06,.26,.04,.04,.11,.07,.22,.07h1.29c.1,0,.18-.02,.21-.06,.04-.04,.05-.13,.05-.26v-.18c0-.13-.02-.22-.05-.26-.04-.04-.11-.06-.21-.06Z"/><path class="cls-2" d="M60.06,65.14c.25,0,.42,.05,.51,.15,.09,.1,.13,.28,.13,.55v.32c0,.21-.04,.36-.12,.47s-.22,.18-.41,.23c.2,.03,.36,.1,.45,.22s.14,.28,.14,.5v.38c0,.29-.05,.49-.15,.6s-.28,.17-.53,.17h-1.77c-.25,0-.43-.05-.52-.16s-.15-.31-.15-.6v-.38c0-.21,.05-.38,.14-.5,.1-.12,.24-.19,.45-.22-.2-.05-.33-.13-.41-.23-.08-.1-.12-.26-.12-.46v-.32c0-.27,.04-.45,.13-.55,.09-.1,.25-.15,.51-.15h1.73Zm-.15,2.02h-1.42c-.1,0-.17,.02-.21,.06-.04,.04-.05,.13-.05,.26v.26c0,.13,.02,.22,.05,.26s.1,.06,.21,.06h1.42c.11,0,.18-.02,.21-.06s.05-.13,.05-.26v-.26c0-.13-.02-.22-.05-.26s-.1-.06-.21-.06Zm-.06-1.41h-1.29c-.11,0-.18,.02-.22,.07s-.06,.13-.06,.26v.18c0,.13,.02,.21,.06,.26,.04,.04,.11,.07,.22,.07h1.29c.1,0,.18-.02,.21-.06s.05-.13,.05-.26v-.18c0-.13-.02-.22-.05-.26s-.11-.06-.21-.06Z"/><path class="cls-2" d="M62.35,67.64h.1s.08,.02,.1,.05c.02,.03,.03,.1,.03,.2v.56c0,.11-.01,.18-.03,.21-.02,.03-.09,.05-.19,.05h-.48s-.08-.02-.1-.05c-.02-.04-.03-.1-.03-.2v-.56c0-.11,.01-.17,.03-.21s.09-.05,.19-.05h.38Z"/><path class="cls-2" d="M63.56,65.99c0-.33,.04-.55,.13-.67s.25-.18,.5-.18h1.88c.25,0,.41,.06,.5,.18,.09,.12,.13,.34,.13,.67v1.88c0,.33-.04,.55-.13,.67-.09,.12-.26,.18-.5,.18h-1.88c-.24,0-.41-.06-.5-.18s-.13-.34-.13-.67v-1.88Zm.58,2.09h1.98v-2.32h-1.98v2.32Z"/><path class="cls-2" d="M69.74,68.76v-.83h-2.1v-.6l2.08-2.23h.61v2.23h.67v.6h-.67v.83h-.59Zm0-1.43v-1.6l-1.52,1.6h1.52Z"/><path class="cls-2" d="M71.87,65.99c0-.33,.04-.55,.13-.67s.25-.18,.5-.18h1.88c.25,0,.41,.06,.5,.18,.09,.12,.13,.34,.13,.67v1.88c0,.33-.04,.55-.13,.67-.09,.12-.26,.18-.5,.18h-1.88c-.24,0-.41-.06-.5-.18s-.13-.34-.13-.67v-1.88Zm.58,2.09h1.98v-2.32h-1.98v2.32Z"/><path class="cls-2" d="M77.01,68.78l1.5-3.03h-1.83v.77l-.59-.13v-1.25h3.08v.58l-1.45,3.06h-.71Z"/></g></g><g><path class="cls-1" d="M58.55,32.18c0-2.76,3.02-6.5,3.02-10.91,0,0,1.88,1.08,1.24,3.13,0,0,.81-.48,2.34-.48,1.9,0,3.78,1.35,3.78,3.23,0,2.82-2.18,3.56-2.18,3.56,0,0,.03-3.28-3.2-3.28-3.48,0-4.26,4.75-4.26,4.75h-.74Zm1.46,4.84c0,.26-.28,.55-.28,.55,.99,0,1.19-.53,1.19-.53,.92,.78,2.04-.06,2.04-.06-2.01-.21-3.23-1.87-3.23-1.87h-1.2c0,.77,1.48,.88,1.48,1.9Zm-2.3-4.85c0-2.3,3-6.74,3-11.26s-3.57-7-3.57-7c0,0-3.57,2.48-3.57,7s3,8.95,3,11.26h1.15Zm-.58,.47h-4.15c-1.44,0-1.47,2.03,0,2.03h8.3c1.47,0,1.44-2.03,0-2.03h-4.15Zm-1.41-.46c0-2.76-3.02-6.5-3.02-10.91,0,0-1.88,1.08-1.24,3.13,0,0-.81-.48-2.34-.48-1.9,0-3.78,1.35-3.78,3.23,0,2.82,2.18,3.56,2.18,3.56,0,0-.03-3.28,3.2-3.28,3.48,0,4.26,4.75,4.26,4.75h.74Zm2.33,6.45c1.37,.47,2.03-.51,2.03-.51-2.21,.12-2.35-3.01-2.35-3.01h-1.2s-.14,3.13-2.35,3.01c0,0,.66,.97,2.03,.51,0,0,.06,1.03,.92,1.51,.86-.48,.92-1.51,.92-1.51Zm-2.32-3.52h-1.2s-1.23,1.66-3.23,1.87c0,0,1.12,.84,2.04,.06,0,0,.21,.53,1.19,.53,0,0-.28-.29-.28-.55,0-1.02,1.48-1.13,1.48-1.9Z"/><path class="cls-4" d="M60.91,27.47s1.19-2.67,4.26-2.67c1.76,0,2.88,1.15,2.88,2.48s-.75,1.97-.75,1.97c0,0-.65-2.71-3.69-2.71-1.68,0-2.7,.93-2.7,.93Zm-7.54,0s-1.19-2.67-4.26-2.67c-1.76,0-2.88,1.15-2.88,2.48s.75,1.97,.75,1.97c0,0,.65-2.71,3.69-2.71,1.68,0,2.7,.93,2.7,.93Zm3.77,3.49c0-.74,2.64-6.03,2.64-10.4,0-2.74-2.63-5.4-2.63-5.4v15.8Zm0,5.34s-.71,1.67,0,2.8c.71-1.13,0-2.8,0-2.8Z"/></g></g></g></svg>